<svg width="20" height="20" viewBox="0 0 20 20" fill="none" xmlns="http://www.w3.org/2000/svg">
<path fill-rule="evenodd" clip-rule="evenodd" d="M13.6757 2.30727L13.6766 2.93195C15.9721 3.11186 17.4885 4.67608 17.4909 7.07488L17.5 14.0963C17.5033 16.7118 15.8602 18.3209 13.2265 18.3251L6.79323 18.3334C4.17599 18.3368 2.51235 16.6893 2.50906 14.0663L2.50001 7.12735C2.49671 4.71273 3.95961 3.15268 6.25514 2.94195L6.25431 2.31726C6.2535 1.95078 6.52501 1.67508 6.88703 1.67508C7.24905 1.67425 7.52057 1.94911 7.52139 2.31559L7.52221 2.89863L12.4095 2.89198L12.4087 2.30893C12.4078 1.94245 12.6793 1.66758 13.0414 1.66675C13.3952 1.66592 13.6749 1.94078 13.6757 2.30727ZM3.7679 7.38473L16.2247 7.36807V7.07654C16.1893 5.28578 15.2908 4.34624 13.6782 4.20632L13.679 4.84766C13.679 5.20582 13.4001 5.48983 13.0463 5.48983C12.6843 5.49067 12.4119 5.20748 12.4119 4.84933L12.4112 4.17467L7.52386 4.18133L7.52468 4.85516C7.52468 5.21414 7.25399 5.49733 6.89196 5.49733C6.52995 5.49817 6.25761 5.21581 6.25761 4.85683L6.25679 4.21548C4.65238 4.37623 3.76461 5.31909 3.76707 7.12568L3.7679 7.38473ZM12.6999 11.1703V11.1795C12.7082 11.5627 13.0208 11.8533 13.4001 11.845C13.7703 11.8358 14.0657 11.5185 14.0575 11.1353C14.0402 10.7688 13.7432 10.4698 13.3737 10.4707C12.9953 10.479 12.6991 10.7872 12.6999 11.1703ZM13.3795 14.9101C13.0011 14.9018 12.6958 14.5861 12.695 14.203C12.6867 13.8198 12.9903 13.5025 13.3688 13.4933H13.3771C13.7637 13.4933 14.0772 13.809 14.0772 14.2005C14.0781 14.5919 13.7654 14.9093 13.3795 14.9101ZM9.31008 11.1837C9.32658 11.5668 9.64 11.8658 10.0185 11.8492C10.3887 11.8317 10.6842 11.5152 10.6677 11.132C10.6586 10.7572 10.3542 10.4657 9.98391 10.4665C9.6055 10.4832 9.30925 10.8005 9.31008 11.1837ZM10.0218 14.8727C9.64333 14.8893 9.33066 14.5903 9.31341 14.2072C9.31341 13.824 9.60875 13.5075 9.98725 13.49C10.3575 13.4892 10.6627 13.7807 10.671 14.1547C10.6882 14.5387 10.3921 14.8552 10.0218 14.8727ZM5.92027 11.2128C5.93673 11.5959 6.25021 11.8958 6.62868 11.8783C6.99893 11.8617 7.29431 11.5443 7.27702 11.1612C7.2688 10.7863 6.96437 10.4948 6.5933 10.4957C6.21482 10.5123 5.91945 10.8297 5.92027 11.2128ZM6.63197 14.8768C6.2535 14.8943 5.94084 14.5944 5.92356 14.2113C5.92274 13.8282 6.21894 13.5108 6.59741 13.4942C6.96766 13.4933 7.27291 13.7848 7.28114 14.1597C7.29841 14.5428 7.00304 14.8602 6.63197 14.8768Z" fill="#444444"/>
</svg>
