<svg width="20" height="20" viewBox="0 0 20 20" fill="none" xmlns="http://www.w3.org/2000/svg">
<path fill-rule="evenodd" clip-rule="evenodd" d="M1.66663 10.0126C1.66663 5.62268 5.17496 1.66675 10.0166 1.66675C14.75 1.66675 18.3333 5.54757 18.3333 9.98758C18.3333 15.1369 14.1333 18.3334 9.99996 18.3334C8.63329 18.3334 7.11663 17.9662 5.89996 17.2484C5.47496 16.9897 5.11663 16.7977 4.65829 16.948L2.97496 17.4487C2.54996 17.5822 2.16663 17.2484 2.29163 16.7977L2.84996 14.9283C2.94163 14.6696 2.92496 14.3942 2.79163 14.1772C2.07496 12.8585 1.66663 11.4147 1.66663 10.0126ZM8.91663 10.0126C8.91663 10.6052 9.39163 11.0808 9.98329 11.0892C10.575 11.0892 11.05 10.6052 11.05 10.0209C11.05 9.42841 10.575 8.95267 9.98329 8.95267C9.39996 8.94433 8.91663 9.42842 8.91663 10.0126ZM12.7583 10.0209C12.7583 10.6052 13.2333 11.0892 13.825 11.0892C14.4166 11.0892 14.8916 10.6052 14.8916 10.0209C14.8916 9.42841 14.4166 8.95267 13.825 8.95267C13.2333 8.95267 12.7583 9.42841 12.7583 10.0209ZM6.14163 11.0892C5.55829 11.0892 5.07496 10.6052 5.07496 10.0209C5.07496 9.42841 5.54996 8.95267 6.14163 8.95267C6.73329 8.95267 7.20829 9.42841 7.20829 10.0209C7.20829 10.6052 6.73329 11.0808 6.14163 11.0892Z" fill="#200E32"/>
</svg>
