<svg width="20" height="20" viewBox="0 0 20 20" fill="none" xmlns="http://www.w3.org/2000/svg">
<path fill-rule="evenodd" clip-rule="evenodd" d="M6.36447 2.82949C4.21697 2.82949 2.82947 4.30199 2.82947 6.57366V13.4187C2.82947 14.0562 2.9478 14.6253 3.1503 15.1178C3.15905 15.1074 3.34976 14.875 3.59855 14.5718C4.08478 13.9792 4.79285 13.1164 4.7978 13.112C5.37447 12.4537 6.45697 11.472 7.8778 12.0662C8.18915 12.1952 8.4659 12.3721 8.72065 12.5349C8.74548 12.5507 8.77006 12.5665 8.79448 12.582C9.27198 12.9012 9.55281 13.0512 9.84448 13.0262C9.96531 13.0095 10.0786 12.9737 10.1861 12.907C10.5916 12.657 11.643 11.1673 11.9578 10.7212C12.004 10.6558 12.0343 10.6128 12.0445 10.5995C12.9528 9.41616 14.3528 9.09949 15.5195 9.79949C15.6761 9.89283 16.7986 10.677 17.1703 10.992V6.57366C17.1703 4.30199 15.7828 2.82949 13.6278 2.82949H6.36447ZM13.6278 1.66699C16.442 1.66699 18.3328 3.63533 18.3328 6.57366V13.4187C18.3328 13.4926 18.3251 13.5618 18.3173 13.6312C18.3118 13.6798 18.3064 13.7284 18.3036 13.7787C18.3018 13.809 18.301 13.8393 18.3001 13.8697C18.299 13.9102 18.2978 13.9507 18.2945 13.9912C18.2928 14.007 18.2896 14.0222 18.2866 14.0374C18.2834 14.0526 18.2803 14.0678 18.2786 14.0837C18.2511 14.3453 18.2086 14.5953 18.1495 14.8378C18.1355 14.8984 18.1193 14.9568 18.1031 15.0158L18.0995 15.0287C18.0328 15.2637 17.9545 15.4878 17.8603 15.702C17.8438 15.738 17.8264 15.7731 17.809 15.8082C17.7974 15.8316 17.7858 15.855 17.7745 15.8787C17.6728 16.0828 17.5628 16.2787 17.4353 16.4603C17.4117 16.4939 17.3866 16.5255 17.3615 16.5571C17.3448 16.5779 17.3282 16.5987 17.312 16.6203C17.1795 16.792 17.0411 16.9562 16.8845 17.1053C16.8532 17.1351 16.8194 17.1622 16.7856 17.1895C16.7645 17.2065 16.7433 17.2235 16.7228 17.2412C16.562 17.3795 16.3978 17.512 16.217 17.6253C16.1775 17.6501 16.1356 17.6709 16.0938 17.6917C16.0668 17.7051 16.0398 17.7184 16.0136 17.7328C15.8295 17.8345 15.6436 17.9337 15.4411 18.0103C15.3924 18.0288 15.3406 18.0422 15.2886 18.0557C15.2516 18.0652 15.2146 18.0747 15.1786 18.0862C15.1606 18.0917 15.1426 18.0973 15.1246 18.1029C14.9437 18.1592 14.7634 18.2153 14.5686 18.2487C14.4558 18.2684 14.3361 18.276 14.2162 18.2837C14.1643 18.2869 14.1125 18.2902 14.0611 18.2945C14.006 18.2986 13.9518 18.3052 13.8976 18.3119C13.8096 18.3228 13.7212 18.3337 13.6278 18.3337H6.36447C6.05114 18.3337 5.75197 18.302 5.4628 18.2545C5.45197 18.2528 5.44197 18.2512 5.43197 18.2495C4.30447 18.0553 3.36864 17.5112 2.7128 16.6903C2.70825 16.6903 2.70646 16.6872 2.70408 16.6832C2.70254 16.6805 2.70075 16.6774 2.6978 16.6745C2.03864 15.8445 1.66614 14.7287 1.66614 13.4187V6.57366C1.66614 3.63533 3.55864 1.66699 6.36447 1.66699H13.6278ZM9.16665 7.09579C9.16665 8.22492 8.22187 9.16666 7.08734 9.16666C6.09009 9.16666 5.2398 8.43799 5.04923 7.49468C5.01774 7.35314 4.99997 7.20758 4.99997 7.05718C4.99997 5.92002 5.92375 4.99999 7.06554 4.99999C7.64694 4.99999 8.17342 5.24448 8.55048 5.63452C8.92923 6.01089 9.16665 6.52962 9.16665 7.09579Z" fill="#200E32"/>
</svg>
