<?xml version="1.0" encoding="UTF-8"?>
<svg id="Layer_2" data-name="Layer 2" xmlns="http://www.w3.org/2000/svg" viewBox="0 0 166.2 187.72">
  <defs>
    <style>
      .cls-1 {
        fill: #231f20;
      }
    </style>
  </defs>
  <g id="Layer_1-2" data-name="Layer 1">
    <g>
      <path class="cls-1" d="M99.02,9.56c-7.33,3.44-25.36,.22-37.4-7.12-12.04-7.34-24.83,3.12-23.03,15,1.8,11.88,22.79,21.07,22.79,21.07h.33c3.99-2.92,10.96-5.24,21.4-5.24,10.96,0,18.1,2.56,21.98,5.69,2.93-1.38,13.34-3.42,16.73-14.46,4.22-13.75-10.49-20.72-22.79-14.95Z"/>
      <path class="cls-1" d="M159.43,155.19c-1.77-1.21-3.12-2.95-3.73-5.01-1.4-4.77-3.46-14.96-4.06-34.79-.94-30.99-22.54-71.05-68.55-71.05S15.49,84.4,14.55,115.39c-.6,19.84-2.66,30.03-4.06,34.79-.61,2.06-1.96,3.8-3.73,5.01-3.35,2.29-8.79,7.51-6,16.18,3.48,10.83,23.14,13.57,43.68,8.28,0,0,19.73,8.08,38.78,8.08s38.53-8.08,38.53-8.08c20.54,5.29,40.2,2.55,43.68-8.28,2.79-8.67-2.65-13.89-6-16.18Zm-75.05-43.47c4.99-4.14,8.04-8.77,9.54-11.43,.38-.68,1.41-.46,1.47,.32,.27,3.13,.25,8.55-.91,14.06-1.34,6.37-7.34,11.93-9.99,14.12-.21,.17,0,.51,.25,.39,3.73-1.67,6.84-5.56,8.61-7.64,.51-.61,1.5-.2,1.45,.6-.49,7.55-4.39,14.31-11.71,21.35-3.1,2.98-2.15,7.01-.8,12.8,.95,4.08,1.46,6.07,1.82,7.66,.17,.79-.8,1.19-1.2,.3l-.92-2.61s-2.03-6.53-2.07-6.66c-10.14-30.16,1.98-61.14,4.25-66.65,.04-.1-.1-.16-.15-.07-2.74,4.36-15.05,26.12-8.56,55.97,.03,.15-.15,.25-.26,.14-9.35-9.35-14.11-21.14-10.98-40.57,1.79-11.15,6.74-17.84,10.86-22.29,6.82-7.37,14.2-10.24,16.76-11.15,2.3-.81,3.77,0,4.43,1.78,1.08,2.89,1.8,7.08,1.78,10.01-.03,4.62-1.88,8.58-5.17,15.5-2.17,4.57-6.43,10.2-9.06,13.49-.31,.39,.2,.89,.59,.57Z"/>
    </g>
  </g>
</svg>