<svg width="942" height="200" viewBox="0 0 942 200" fill="none" xmlns="http://www.w3.org/2000/svg">
<path d="M99.2365 199.829L1.01377 155.515C0.387985 155.227 0 154.601 0 153.924L0.350438 44.9673L99.2365 86.6387V199.829V199.829Z" fill="#414042"/>
<path d="M197.147 42.4248L100.15 0.390185C98.9237 -0.1484 97.522 -0.123349 96.2954 0.42776L64.5808 14.9069L164.618 56.3403C165.82 56.8288 166.596 58.0062 166.583 59.2963L165.932 88.5552C165.92 89.2441 165.507 89.8578 164.894 90.1334L146.508 98.4627C145.319 99.0012 143.98 98.112 143.993 96.8093L144.443 72.0845C144.443 70.8946 143.742 69.8175 142.653 69.354L41.7648 25.3404L1.81482 43.5897H1.78979C0.413064 44.241 0.450611 46.2074 1.85236 46.7836L95.8574 85.7746C97.4093 86.4384 98.4231 87.9665 98.4231 89.6574L98.1227 198.226C98.1227 199.504 99.4243 200.355 100.588 199.854L100.638 199.829L197.147 157.795C198.874 157.043 199.988 155.34 199.988 153.448V46.7711C199.988 44.8798 198.861 43.1763 197.134 42.4248H197.147Z" fill="#231F20"/>
<path d="M284.688 136.92C301.328 136.92 310.8 129.24 310.8 116.696C310.8 104.536 302.736 100.44 289.296 95.96L281.104 93.272C276.24 91.608 270.352 90.2 270.352 84.952C270.352 80.344 274.192 77.528 280.848 77.528C288.656 77.528 294.16 81.112 294.928 88.792H309.264C307.472 73.432 296.72 65.112 280.976 65.112C264.72 65.112 255.504 73.048 255.504 85.08C255.504 97.624 265.232 101.464 276.496 105.176L285.456 108.12C291.344 110.04 295.696 111.064 295.696 116.312C295.696 121.56 291.6 124.504 283.92 124.504C275.6 124.504 269.328 120.664 268.816 113.368H254.224C255.12 128.216 266.128 136.92 284.688 136.92ZM358.592 135V122.2H350.912C345.28 122.2 342.336 119 342.336 113.24V79.96H359.872V67.16H342.336V43.992H327.232V67.16H315.328V79.96H327.232V114.264C327.232 127.704 335.168 135 349.888 135H358.592ZM400.787 136.92C421.011 136.92 435.475 123.352 435.475 100.44C435.475 80.472 422.675 65.112 400.787 65.112C380.947 65.112 365.971 78.296 365.971 100.44C365.971 121.432 378.771 136.92 400.787 136.92ZM400.787 123.992C389.651 123.992 381.331 115.288 381.331 100.44C381.331 87 389.011 78.04 400.787 78.04C412.563 78.04 420.115 87 420.115 100.44C420.115 114.008 412.947 123.992 400.787 123.992ZM462.409 135V101.464C462.409 88.664 470.729 81.112 484.809 81.112H487.369V66.392H484.809C473.545 66.392 465.609 71.256 461.257 80.472L459.465 67.16H447.305V135H462.409ZM512.665 135V114.392L524.953 102.104L545.817 135H563.353L535.449 91.608L560.025 67.16H541.593L512.665 96.6V39H497.561V135H512.665ZM626.334 136.92C637.342 136.92 645.79 131.544 649.63 122.968L651.038 135H663.198V39H648.094V75.48C643.358 69.08 635.422 65.112 625.822 65.112C607.774 65.112 594.846 79.704 594.846 100.696C594.846 122.072 608.03 136.92 626.334 136.92ZM629.15 124.12C618.014 124.12 610.334 114.52 610.334 100.824C610.334 87.256 618.142 77.784 629.406 77.784C640.414 77.784 648.094 87.128 648.094 100.568C648.094 114.392 640.286 124.12 629.15 124.12ZM693.909 135V101.464C693.909 88.664 702.229 81.112 716.309 81.112H718.869V66.392H716.309C705.045 66.392 697.109 71.256 692.757 80.472L690.965 67.16H678.805V135H693.909ZM758.162 136.92C778.386 136.92 792.85 123.352 792.85 100.44C792.85 80.472 780.05 65.112 758.162 65.112C738.322 65.112 723.346 78.296 723.346 100.44C723.346 121.432 736.146 136.92 758.162 136.92ZM758.162 123.992C747.026 123.992 738.706 115.288 738.706 100.44C738.706 87 746.386 78.04 758.162 78.04C769.938 78.04 777.49 87 777.49 100.44C777.49 114.008 770.322 123.992 758.162 123.992ZM820.04 160.6V125.528C824.648 132.568 832.712 136.92 842.44 136.92C860.488 136.92 873.16 122.072 873.16 100.696C873.16 79.704 860.488 65.112 842.568 65.112C831.816 65.112 822.984 70.36 818.504 78.296L816.968 67.16H804.808V160.6H820.04ZM839.112 124.12C827.848 124.12 820.04 114.264 820.04 100.312C820.04 87.128 827.848 77.912 838.984 77.912C850.12 77.912 857.672 87.256 857.672 100.696C857.672 114.52 850.12 124.12 839.112 124.12ZM911.938 136.92C928.578 136.92 938.05 129.24 938.05 116.696C938.05 104.536 929.986 100.44 916.546 95.96L908.354 93.272C903.49 91.608 897.602 90.2 897.602 84.952C897.602 80.344 901.442 77.528 908.098 77.528C915.906 77.528 921.41 81.112 922.178 88.792H936.514C934.722 73.432 923.97 65.112 908.226 65.112C891.97 65.112 882.754 73.048 882.754 85.08C882.754 97.624 892.482 101.464 903.746 105.176L912.706 108.12C918.594 110.04 922.946 111.064 922.946 116.312C922.946 121.56 918.85 124.504 911.17 124.504C902.85 124.504 896.578 120.664 896.066 113.368H881.474C882.37 128.216 893.378 136.92 911.938 136.92Z" fill="#333333"/>
</svg>
