<?xml version="1.0" encoding="UTF-8"?>
<svg id="Layer_2" data-name="Layer 2" xmlns="http://www.w3.org/2000/svg" viewBox="0 0 159.8 159.67">
  <defs>
    <style>
      .cls-1 {
        fill: #231f20;
      }

      .cls-2 {
        fill: #414042;
      }
    </style>
  </defs>
  <g id="Layer_1-2" data-name="Layer 1">
    <g>
      <path class="cls-2" d="M79.29,159.54L.81,124.16c-.5-.23-.81-.73-.81-1.27L.28,35.9l79.01,33.27v90.37Z"/>
      <path class="cls-1" d="M157.52,33.87L80.02,.31c-.98-.43-2.1-.41-3.08,.03l-25.34,11.56,79.93,33.08c.96,.39,1.58,1.33,1.57,2.36l-.52,23.36c-.01,.55-.34,1.04-.83,1.26l-14.69,6.65c-.95,.43-2.02-.28-2.01-1.32l.36-19.74c0-.95-.56-1.81-1.43-2.18L33.37,20.23,1.45,34.8h-.02c-1.1,.52-1.07,2.09,.05,2.55l75.11,31.13c1.24,.53,2.05,1.75,2.05,3.1l-.24,86.68c0,1.02,1.04,1.7,1.97,1.3l.04-.02,77.11-33.56c1.38-.6,2.27-1.96,2.27-3.47V37.34c0-1.51-.9-2.87-2.28-3.47Z"/>
    </g>
  </g>
</svg>